<svg width="61" height="60" viewBox="0 0 61 60" fill="none" xmlns="http://www.w3.org/2000/svg">
  <path id="Vector" d="M47.75 0.000508069H13.25C9.90258 -0.0294888 6.68001 1.26988 4.2896 3.61341C1.8992 5.95693 0.536288 9.15315 0.5 12.5005L0.5 20.0005C0.5 20.6635 0.763392 21.2994 1.23223 21.7683C1.70107 22.2371 2.33696 22.5005 3 22.5005C3.66304 22.5005 4.29893 22.2371 4.76777 21.7683C5.23661 21.2994 5.5 20.6635 5.5 20.0005V12.5005C5.53552 10.479 6.3714 8.55411 7.82428 7.1481C9.27716 5.74208 11.2284 4.96974 13.25 5.00051H47.75C49.7716 4.96974 51.7228 5.74208 53.1757 7.1481C54.6286 8.55411 55.4645 10.479 55.5 12.5005V47.5005C55.4645 49.522 54.6286 51.4469 53.1757 52.8529C51.7228 54.2589 49.7716 55.0313 47.75 55.0005H13.25C11.2284 55.0313 9.27716 54.2589 7.82428 52.8529C6.3714 51.4469 5.53552 49.522 5.5 47.5005V40.0005C5.5 39.3375 5.23661 38.7016 4.76777 38.2327C4.29893 37.7639 3.66304 37.5005 3 37.5005C2.33696 37.5005 1.70107 37.7639 1.23223 38.2327C0.763392 38.7016 0.5 39.3375 0.5 40.0005L0.5 47.5005C0.536288 50.8479 1.8992 54.0441 4.2896 56.3876C6.68001 58.7311 9.90258 60.0305 13.25 60.0005H47.75C51.0974 60.0305 54.32 58.7311 56.7104 56.3876C59.1008 54.0441 60.4637 50.8479 60.5 47.5005V12.5005C60.4637 9.15315 59.1008 5.95693 56.7104 3.61341C54.32 1.26988 51.0974 -0.0294888 47.75 0.000508069Z" fill="#fff"/>
  <path id="Vector_2" d="M8 30C8 30.6631 8.26339 31.299 8.73223 31.7678C9.20107 32.2366 9.83696 32.5 10.5 32.5L43.47 32.425L32.6625 43.2325C32.4237 43.4632 32.2333 43.739 32.1022 44.044C31.9712 44.349 31.9023 44.6771 31.8994 45.009C31.8965 45.341 31.9597 45.6702 32.0854 45.9774C32.2111 46.2847 32.3968 46.5638 32.6315 46.7985C32.8662 47.0333 33.1454 47.2189 33.4526 47.3446C33.7599 47.4703 34.0891 47.5336 34.421 47.5307C34.753 47.5278 35.081 47.4588 35.386 47.3278C35.691 47.1968 35.9669 47.0063 36.1975 46.7675L47.6625 35.3025C49.0685 33.8961 49.8584 31.9888 49.8584 30C49.8584 28.0113 49.0685 26.104 47.6625 24.6975L36.2025 13.2325C35.731 12.7771 35.0995 12.5252 34.444 12.5309C33.7885 12.5366 33.1615 12.7995 32.698 13.263C32.2344 13.7265 31.9715 14.3535 31.9658 15.009C31.9601 15.6645 32.2121 16.296 32.6675 16.7675L43.3225 27.425L10.5 27.5C9.83696 27.5 9.20107 27.7634 8.73223 28.2323C8.26339 28.7011 8 29.337 8 30Z" fill="#fff"/>
</svg>